<?xml version="1.0" encoding="UTF-8" standalone="no"?>
<!DOCTYPE svg PUBLIC "-//W3C//DTD SVG 1.1//EN" "http://www.w3.org/Graphics/SVG/1.1/DTD/svg11.dtd">
<svg version="1.1" xmlns="http://www.w3.org/2000/svg" xmlns:xlink="http://www.w3.org/1999/xlink" preserveAspectRatio="xMidYMid meet" viewBox="-0.9997835562982047 -1.0000000000000835 515.9983165043931 515.9990000019533" width="512" height="512"><defs><path d="M30.07 413.18C30.39 415.88 31.8 418.33 33.96 419.97C36.13 421.61 38.86 422.3 41.55 421.88C42.15 421.78 101.95 412.58 133.22 421.61C178.33 434.64 208.56 466.98 216.19 475.83C218.12 496.1 235.24 512 256 512C276.77 512 293.88 496.09 295.81 475.82C303.41 466.95 333.48 434.69 378.77 421.61C410 412.59 469.85 421.78 470.45 421.88C476.06 422.75 481.26 418.8 481.93 413.18C482.9 405.05 490.64 340 491.61 331.87C492.26 326.39 488.35 321.41 482.86 320.76C477.38 320.11 472.4 324.02 471.75 329.5C470.9 336.63 464.12 393.61 463.27 400.73C443.63 398.35 406.08 312.88 378.77 320.76C344.06 330.79 312.09 432.13 296 446.95C296 421.51 296 217.99 296 192.55C301.45 183 328.63 140 376 140C412.84 140 457.08 152.32 491.18 166.27C490.3 173.65 483.27 232.75 482.39 240.13C481.68 246.07 486.31 251.31 492.33 251.31C497.33 251.31 501.64 247.58 502.25 242.5C503.22 234.37 510.96 169.31 511.93 161.18C512.44 156.86 510.1 152.7 506.14 150.9C505.45 150.58 490.64 143.89 468.64 136.78C469.37 130.21 475.21 77.67 475.94 71.11C476.25 68.28 475.35 65.45 473.45 63.33C471.55 61.21 468.84 60 466 60C458.09 60 450.15 60.46 442.28 61.38C442.65 56.32 445.6 15.79 445.97 10.73C446.18 7.96 445.22 5.23 443.32 3.19C441.43 1.16 438.78 0 436 0C361.98 0 298.61 53.53 286.41 126.72C275.89 190.29 276 188.3 276 190C276 201.03 267.03 210 256 210C244.97 210 236 201.03 236 190C236 187.9 235.31 185.75 225.59 126.72C213.42 53.71 150.19 0 76 0C73.22 0 70.57 1.16 68.68 3.19C66.78 5.22 65.82 7.96 66.03 10.73C66.4 15.79 69.35 56.32 69.72 61.38C61.85 60.46 53.91 60 46 60C43.15 60 40.45 61.21 38.55 63.33C36.65 65.45 35.75 68.28 36.06 71.1C36.79 77.67 42.63 130.21 43.36 136.78C21.36 143.89 6.55 150.58 5.86 150.9C1.9 152.7 -0.44 156.86 0.07 161.18C6.07 211.58 24.07 362.78 30.07 413.18ZM449.16 130.98C422.33 123.69 397.76 120 376 120C365.01 120 354.96 121.78 345.83 124.74C376.2 98.6 414.22 82.82 454.79 80.34C453.66 90.47 449.72 125.92 449.16 130.98ZM306.13 130C316.17 69.84 365.38 25.25 425.21 20.43C424.89 24.87 422.3 60.37 421.98 64.81C376.82 74.79 334.86 100.13 304.61 139.15C304.91 137.32 305.83 131.83 306.13 130ZM276 224.62C276 249.36 276 447.26 276 472C276 483.03 267.03 492 256 492C244.97 492 236 483.03 236 472C236 447.26 236 249.36 236 224.62C241.89 228.03 248.72 230 256 230C263.28 230 270.11 228.03 276 224.62ZM207.39 139.15C177.11 100.09 135.11 74.78 90.02 64.8C89.7 60.37 87.11 24.87 86.79 20.43C146.62 25.25 195.83 69.84 205.87 130C206.17 131.83 207.24 138.24 207.39 139.15ZM136 120C114.24 120 89.67 123.69 62.84 130.98C62.28 125.92 57.77 85.41 57.21 80.34C97.62 82.81 135.67 98.5 166.17 124.75C157.04 121.78 146.99 120 136 120ZM216 192.55C216 217.99 216 421.51 216 446.95C199.91 432.13 173.49 412.42 138.77 402.39C113.73 395.16 74.53 397.6 48.73 400.73C45.94 377.28 23.61 189.71 20.82 166.27C54.95 152.3 99.19 140 136 140C183.36 140 210.54 182.99 216 192.55Z" id="b234j64vRQ"></path><path d="M254.44 457.4C248.92 457.4 244.44 461.87 244.44 467.4C244.44 472.92 248.92 477.4 254.44 477.4C259.96 477.4 264.44 472.92 264.44 467.4C264.44 461.87 259.96 457.4 254.44 457.4Z" id="b2vFdtq3eo"></path><path d="M67.64 198.58C64.12 198.58 61.19 199.39 58.91 200.37C61.11 192.35 66.37 178.5 76.86 176.94C77.84 176.79 78.63 176.09 78.9 175.14C79.13 174.32 80.96 167.76 81.19 166.94C81.38 166.25 81.27 165.51 80.87 164.91C80.48 164.3 79.84 163.9 79.13 163.8C78.36 163.7 77.57 163.65 76.78 163.65C64.19 163.65 51.72 176.79 46.46 195.61C43.37 206.65 42.46 223.25 50.07 233.7C54.33 239.54 60.54 242.67 68.54 242.98C68.57 242.98 68.6 242.98 68.63 242.98C78.5 242.98 87.24 236.34 89.9 226.83C91.49 221.14 90.77 215.18 87.88 210.04C85.01 204.95 80.3 201.24 74.59 199.6C72.25 198.93 69.91 198.58 67.64 198.58Z" id="azhgiqLA8"></path><path d="M435.91 207.03C438.25 207.7 440.59 208.04 442.87 208.04C446.38 208.04 449.32 207.24 451.59 206.26C449.4 214.28 444.13 228.13 433.64 229.69C432.67 229.83 431.87 230.54 431.61 231.48C431.38 232.3 429.54 238.86 429.31 239.68C429.12 240.38 429.23 241.12 429.63 241.72C430.02 242.32 430.66 242.72 431.37 242.82C432.15 242.93 432.94 242.98 433.72 242.98C446.31 242.98 458.78 229.84 464.05 211.02C467.14 199.98 468.04 183.38 460.43 172.93C456.17 167.08 449.96 163.96 441.97 163.65C441.94 163.65 441.9 163.65 441.87 163.65C432.01 163.65 423.26 170.29 420.6 179.8C419.01 185.48 419.73 191.45 422.63 196.59C425.49 201.68 430.21 205.39 435.91 207.03Z" id="j8JH3Pvkm"></path></defs><g><g><use xlink:href="#b234j64vRQ" opacity="1" fill="#0078ff" fill-opacity="1"></use><g><use xlink:href="#b234j64vRQ" opacity="1" fill-opacity="0" stroke="#000000" stroke-width="1" stroke-opacity="0"></use></g></g><g><use xlink:href="#b2vFdtq3eo" opacity="1" fill="#0078ff" fill-opacity="1"></use><g><use xlink:href="#b2vFdtq3eo" opacity="1" fill-opacity="0" stroke="#000000" stroke-width="1" stroke-opacity="0"></use></g></g><g><use xlink:href="#azhgiqLA8" opacity="1" fill="#0078ff" fill-opacity="1"></use><g><use xlink:href="#azhgiqLA8" opacity="1" fill-opacity="0" stroke="#000000" stroke-width="1" stroke-opacity="0"></use></g></g><g><use xlink:href="#j8JH3Pvkm" opacity="1" fill="#0078ff" fill-opacity="1"></use><g><use xlink:href="#j8JH3Pvkm" opacity="1" fill-opacity="0" stroke="#000000" stroke-width="1" stroke-opacity="0"></use></g></g></g></svg>